<?xml version="1.0" encoding="UTF-8"?>
<!DOCTYPE svg PUBLIC "-//W3C//DTD SVG 1.1//EN" "http://www.w3.org/Graphics/SVG/1.1/DTD/svg11.dtd">
<!-- Creator: CorelDRAW 2017 -->
<svg xmlns="http://www.w3.org/2000/svg" xml:space="preserve" width="105px" height="21px" version="1.1" style="shape-rendering:geometricPrecision; text-rendering:geometricPrecision; image-rendering:optimizeQuality; fill-rule:evenodd; clip-rule:evenodd"
viewBox="0 0 59.9 12.04"
 xmlns:xlink="http://www.w3.org/1999/xlink">
 <defs>
  <style type="text/css">
   <![CDATA[
    .fil0 {fill:#99CCCC}
    .fil1 {fill:#99CCCC;fill-rule:nonzero}
   ]]>
  </style>
 </defs>
 <g id="PowerClip_x0020_Contents">
  <metadata id="CorelCorpID_0Corel-Layer"/>
  <g id="_1819192904272">
   <path class="fil0" d="M15.79 1.27l-1.27 -1.27 -5.69 5.69 1.27 1.27 5.69 -5.69zm3.81 -1.27l-9.5 9.5 -3.75 -3.75 -1.27 1.27 5.02 5.02 10.77 -10.77 -1.27 -1.27zm-19.6 7.02l5.02 5.02 1.26 -1.27 -5.01 -5.02 -1.27 1.27z"/>
   <path class="fil1" d="M27.37 7.5l-1.57 0 0 3.5 -1.97 0 0 -9.57 3.55 0c1.13,0 2,0.25 2.62,0.76 0.61,0.5 0.92,1.21 0.92,2.13 0,0.66 -0.15,1.2 -0.43,1.64 -0.28,0.43 -0.71,0.78 -1.28,1.04l2.07 3.91 0 0.09 -2.12 0 -1.79 -3.5zm-1.57 -1.6l1.59 0c0.49,0 0.88,-0.13 1.15,-0.38 0.27,-0.25 0.41,-0.6 0.41,-1.04 0,-0.45 -0.13,-0.8 -0.39,-1.06 -0.25,-0.26 -0.65,-0.39 -1.18,-0.39l-1.58 0 0 2.87z"/>
   <path id="1" class="fil1" d="M35.57 11.13c-1.05,0 -1.9,-0.32 -2.55,-0.96 -0.66,-0.64 -0.98,-1.49 -0.98,-2.55l0 -0.19c0,-0.71 0.14,-1.35 0.41,-1.91 0.28,-0.57 0.67,-1 1.17,-1.3 0.51,-0.31 1.09,-0.46 1.74,-0.46 0.97,0 1.73,0.31 2.29,0.92 0.56,0.61 0.84,1.48 0.84,2.61l0 0.77 -4.53 0c0.06,0.47 0.25,0.84 0.56,1.12 0.31,0.28 0.7,0.42 1.17,0.42 0.73,0 1.3,-0.27 1.71,-0.79l0.94 1.04c-0.29,0.4 -0.67,0.72 -1.16,0.94 -0.48,0.23 -1.02,0.34 -1.61,0.34zm-0.22 -5.84c-0.38,0 -0.68,0.13 -0.92,0.39 -0.23,0.25 -0.38,0.62 -0.45,1.09l2.64 0 0 -0.15c-0.01,-0.42 -0.12,-0.75 -0.34,-0.98 -0.22,-0.23 -0.53,-0.35 -0.93,-0.35z"/>
   <path id="2" class="fil1" d="M42.52 9.6c0.35,0 0.63,-0.1 0.85,-0.29 0.22,-0.19 0.33,-0.45 0.34,-0.77l1.78 0c0,0.48 -0.13,0.93 -0.39,1.33 -0.26,0.4 -0.61,0.71 -1.06,0.93 -0.45,0.22 -0.95,0.33 -1.49,0.33 -1.02,0 -1.82,-0.32 -2.41,-0.97 -0.58,-0.64 -0.88,-1.54 -0.88,-2.67l0 -0.13c0,-1.1 0.3,-1.97 0.88,-2.62 0.58,-0.65 1.38,-0.98 2.4,-0.98 0.88,0 1.6,0.25 2.13,0.76 0.54,0.5 0.81,1.18 0.82,2.02l-1.78 0c-0.01,-0.37 -0.12,-0.67 -0.34,-0.9 -0.22,-0.23 -0.51,-0.35 -0.87,-0.35 -0.44,0 -0.77,0.16 -1,0.48 -0.22,0.33 -0.34,0.85 -0.34,1.57l0 0.2c0,0.73 0.11,1.26 0.34,1.58 0.22,0.32 0.56,0.48 1.02,0.48z"/>
   <path id="3" class="fil1" d="M50.7 11c-0.09,-0.17 -0.15,-0.38 -0.19,-0.64 -0.46,0.52 -1.06,0.77 -1.8,0.77 -0.69,0 -1.27,-0.2 -1.73,-0.6 -0.46,-0.41 -0.68,-0.92 -0.68,-1.53 0,-0.75 0.28,-1.33 0.83,-1.74 0.56,-0.4 1.37,-0.6 2.42,-0.61l0.88 0 0 -0.4c0,-0.33 -0.09,-0.59 -0.25,-0.78 -0.17,-0.2 -0.44,-0.3 -0.8,-0.3 -0.32,0 -0.57,0.08 -0.75,0.23 -0.19,0.15 -0.28,0.36 -0.28,0.62l-1.89 0c0,-0.41 0.12,-0.79 0.37,-1.14 0.26,-0.35 0.62,-0.62 1.08,-0.82 0.47,-0.2 0.99,-0.3 1.57,-0.3 0.87,0 1.57,0.22 2.08,0.66 0.52,0.44 0.77,1.06 0.77,1.85l0 3.09c0.01,0.67 0.1,1.18 0.29,1.53l0 0.11 -1.92 0zm-1.57 -1.32c0.28,0 0.54,-0.06 0.77,-0.19 0.24,-0.12 0.41,-0.29 0.53,-0.5l0 -1.22 -0.71 0c-0.95,0 -1.46,0.33 -1.52,0.98l0 0.11c0,0.24 0.08,0.43 0.24,0.59 0.17,0.15 0.4,0.23 0.69,0.23z"/>
   <path id="4" class="fil1" d="M53.49 7.39c0,-1.11 0.25,-1.99 0.75,-2.64 0.5,-0.66 1.18,-0.99 2.04,-0.99 0.69,0 1.26,0.26 1.71,0.77l0 -3.62 1.91 0 0 10.09 -1.72 0 -0.09 -0.76c-0.47,0.6 -1.08,0.89 -1.82,0.89 -0.84,0 -1.51,-0.33 -2.02,-0.99 -0.5,-0.66 -0.76,-1.57 -0.76,-2.75zm1.9 0.14c0,0.67 0.12,1.18 0.35,1.53 0.23,0.36 0.57,0.54 1.01,0.54 0.59,0 1,-0.25 1.24,-0.75l0 -2.81c-0.23,-0.5 -0.64,-0.75 -1.22,-0.75 -0.92,0 -1.38,0.75 -1.38,2.24z"/>
  </g>
 </g>
</svg>
